<?xml version="1.0" encoding="UTF-8" standalone="no"?><svg xmlns="http://www.w3.org/2000/svg" xmlns:xlink="http://www.w3.org/1999/xlink" fill="#ffffff" height="100" preserveAspectRatio="xMidYMid meet" version="1" viewBox="25.0 25.0 100.0 100.0" width="100" zoomAndPan="magnify"><g clip-rule="evenodd" fill-rule="evenodd" id="change1_1"><path d="M75,46.053c-4.353,0-7.896-3.542-7.896-7.895C67.105,35.093,69.565,25,75,25 c5.434,0,7.895,10.093,7.895,13.158C82.895,42.511,79.353,46.053,75,46.053 M75,30.484c-1.129,1.263-2.632,5.5-2.632,7.674 c0,1.449,1.182,2.632,2.632,2.632s2.632-1.183,2.632-2.632C77.632,35.984,76.129,31.748,75,30.484z"/><path d="M117.104,75h-34.21V53.947c0-1.447-1.184-2.632-2.632-2.632H69.736 c-1.447,0-2.632,1.185-2.632,2.632L67.105,75h-34.21C28.553,75,25,78.553,25,82.895v7.895c0,3.816,2.131,7.211,5.264,9.026v17.289 c0,4.343,3.552,7.896,7.894,7.896h73.684c4.342,0,7.895-3.553,7.895-7.895V99.842c3.158-1.895,5.264-5.474,5.264-9.5v-7.447 C125,78.553,121.447,75,117.104,75 M72.368,56.579h5.264V75h-5.264V56.579z M114.474,117.104c0,1.448-1.185,2.632-2.632,2.632 H38.158c-1.447,0-2.631-1.184-2.631-2.631v-15.789c3.158,0,6-1.396,7.921-3.605c1.948,2.184,4.789,3.605,7.869,3.605 c3.158,0,6-1.396,7.92-3.605c1.948,2.184,4.79,3.605,7.868,3.605c3.159,0,6.001-1.396,7.922-3.605 c1.947,2.184,4.789,3.605,7.868,3.605c3.158,0,6-1.396,7.921-3.605c1.948,2.184,4.789,3.605,7.868,3.605 c3.158,0,6.026-1.396,7.947-3.632c0.237,0.263,0.475,0.499,0.711,0.736c1.974,1.868,4.578,2.868,7.131,2.896L114.474,117.104z M119.736,90.342c0,2.947-2.184,5.5-4.868,5.711c-1.368,0.104-2.815-0.447-3.921-1.474s-1.737-2.395-1.737-3.79v-2.631 c0-1.447-1.185-2.632-2.632-2.632s-2.631,1.185-2.631,2.632v2.631c0,2.895-2.369,5.264-5.264,5.264 c-2.842,0-5.263-2.421-5.263-5.264v-2.631c0-1.447-1.185-2.632-2.632-2.632s-2.631,1.185-2.631,2.632v2.631 c0,2.895-2.369,5.264-5.264,5.264c-2.842,0-5.263-2.421-5.263-5.264v-2.631c0-1.447-1.185-2.632-2.632-2.632 c-1.448,0-2.632,1.185-2.632,2.632v2.631c0,2.895-2.368,5.264-5.264,5.264c-2.841,0-5.263-2.421-5.263-5.264v-2.631 c0-1.447-1.185-2.632-2.631-2.632c-1.448,0-2.632,1.185-2.632,2.632l0.001,2.631c0,2.895-2.369,5.264-5.263,5.264 c-2.763,0-5.264-2.5-5.264-5.264v-2.631c0-1.447-1.184-2.632-2.631-2.632s-2.631,1.185-2.631,2.632v2.631 c0,2.895-2.369,5.264-5.263,5.264c-2.763,0-5.263-2.5-5.263-5.264v-7.895c0-1.447,1.184-2.631,2.631-2.631h84.21 c1.448,0,2.632,1.184,2.632,2.631V90.342z"/></g></svg>