<?xml version="1.0" encoding="UTF-8" standalone="no"?><svg xmlns="http://www.w3.org/2000/svg" xmlns:xlink="http://www.w3.org/1999/xlink" fill="#be9139" height="84.2" preserveAspectRatio="xMidYMid meet" version="1" viewBox="0.1 -1.6 1911.3 84.2" width="1911.3" zoomAndPan="magnify"><g data-name="Layer 2"><g data-name="Layer 1"><g id="change1_1"><path d="M972.81,74.11c-6.76,3.61-7.11,3.44-7.25-4.86l-4.44,1.6,2.45,4.27-9.82,3-.08-.11a44.17,44.17,0,0,0-4.43,1.12c-2.23.8-4.33,2.13-6.6,2.51-.85.14-2.25-1.61-3-2.75A18.31,18.31,0,0,1,938.08,75c-7.91,1.77-12.26.73-15.79-3.53l4.61-3.57c-4.13.7-6.91,1.86-9.22,1.24-1-.27-1.54-4.24-1.38-6.46.28-3.85-1.83-4.8-4.79-5-.84-5.58-2-10.92-2.29-16.3-.13-2.39,1.5-4.88,2-6.35l5.56-1-.19-1.3-5.36-2.07,2.8-8.89L919.64,24c.42-1.8.83-3.6,1.35-5.84,5.82.08,3.5-6.65,6.38-9.54,2.49,1.11,2.47,1.1,4.25-1.51.25-.37.86-.8,1.23-.73C939.49,7.57,944.06,2.5,949.76.9a3.67,3.67,0,0,1,2.56.12C957.66,4.2,962.78,6.08,969.46,4c2.24-.71,6.23,3.6,9.2,5.89a5.67,5.67,0,0,1,2,4q.6,4.66,1.22,9.33l1.29-.1c.2-1.2.41-2.4.53-3.15a80.5,80.5,0,0,1,8,5.37c.67.56.49,2.56.17,3.76-.68,2.58-1.71,5.07-2.79,8.14h5.08l-9.61,10.91L993.14,51l-5.5,4.42,1.53,2.33-3.77,3-7.22-6.86c-3,5.07,2.16,4.45,3.12,6.41A17,17,0,0,0,983.41,63c-1.13.69-2.25,1.41-3.41,2.06-3,1.72-6.12,3.36-9,5.27A29.39,29.39,0,0,0,972.81,74.11Zm-19-70.51-2.19,2,5.57,5.19,1.41-1.36Z"/></g><g id="change1_2"><path d="M302.88,42.31c-.75-2.79-2-5.56-2.12-8.38-.14-3.4.64-6.84,1.08-10.26s1.37-6,5.21-6.94c6.74-1.68,6.7-1.82,6.34-8.2L322,3.71c5.07,6.86,9.31-2,14.54-2,3,0,6,0,10.3,0l-3.64,5.11c2.47.14,5,1,6.8.22,3-1.31,5.45-4.36,7.56,1.1.32.84,4.1-.09,5.26.94a72.33,72.33,0,0,1,8.36,9.28,4.26,4.26,0,0,1,.45,3.45c-1.9,5.55-1.47,6.26,4.33,6.3,1,0,1.93.17,2.46.22,1.51,7-7.47,11.69-3.08,20.36,1.62-3.17,2.73-5.36,4.15-8.13,3.27,5.92-3.56,9.52-2.06,14.27L369,54.19c1.18,1.81,2.59,3.06,2.79,4.47.26,1.81-.46,3.76-.83,6.09l-6,3L362.3,63a94.67,94.67,0,0,0-8.42,5.2c-1,.75-1.41,2.45-1.72,3.8a35.3,35.3,0,0,0-.55,4.85l-6.09,2.6.21,1.28L338,77.94l-.11-1.64c1.86-.78,3.74-1.51,5.55-2.37A3.05,3.05,0,0,0,345,72.47c.14-.43-.56-1.22-1-1.72a28.35,28.35,0,0,0-2.15-1.88l-4.69,5.32c-6.75-5.07-4.71,5.4-9.94,5.06-.25-1.51-.19-3.47-1-4.92-.31-.55-2.68.07-4.93.21,0-.52-.16-2-.26-3.25l-7.49-5.13c3.12-.65,6.06-1.21,9-1.87,1.23-.29,2.41-.8,3.61-1.2-1.21-.87-2.43-2.43-3.64-2.43-1.53,0-3.05,1.29-4.7,2.09-2-1.42-4.36-3.5-7.06-4.74-3.57-1.64-5.75-3.26-2.7-7.29l-4.73-1.64V42Z"/></g><g id="change1_3"><path d="M1552.49,8.14l3.93-4.27c6,4.62,11.75,6,18.45.73-.23,2.63-.36,4.17-.57,6.58l6.55-2.45c1.29,2.25,2.93,5.34,4.83,8.26a5.13,5.13,0,0,0,3,2.18,27.68,27.68,0,0,0,5.2.1c2,3.88,3.73,6.46,4.52,9.31.56,2-.21,4.38-.46,7.5,5.85,2.41-1.53,7.94,1.14,12-4.75.53-3.45,3.26-2.45,5.71l-3.84.91,0,1.16,3.77,1c.86,3-2.59,5.69-6.95,5.18V56.56c-4.14,2.36-6.28,4.55-5.45,9.17.76,4.21-5.35,9.77-9.48,10-2.54.16-5,1.69-7.5,2.24-2.37.51-5.27,1.68-5.82-2.68-.05-.4-4.77-1.22-6.13-.22-3.51,2.56-4.28,1.68-4.41-2.1-.1-3-1-3.67-4.66-3.34s-7.43-2.77-12.1-4.76l4.91-1.19a17.64,17.64,0,0,0-2.82-3.38c-2.83-2.07-5.84-3.88-9-6,1.13-1.74,1.91-3,3.08-4.74l-5.07-3.51,5.25-1.36-2.86-4.41,1.51,0a64.74,64.74,0,0,1,.36-7.39,25.49,25.49,0,0,1,1.86-6.32c.7-1.61,1.92-3,2.28-4.91,1.45-1.4,3-2.71,4.33-4.2,3-3.32,5.75-7,9-10C1547.79,6.79,1550.34,7.86,1552.49,8.14Z"/></g><g id="change1_4"><path d="M1068.49,49.86c.35-4.56.52-8.57,1-12.54.14-1,1.5-1.84,2.15-2.85,1.09-1.69,2-3.48,3.08-5.2a13.18,13.18,0,0,1,1.08-1.41c1.3-1.62,2.61-3.24,3.91-4.87l-1-.72-4.44.73-1.1-1c1-1.32,2-2.65,3.07-4,.79-1,1.56-2,2.43-3a14.09,14.09,0,0,1,2.67-2.51c1.07-.68,3-.68,3.44-1.55,2.59-4.93,4.32-1.87,6,.2,3.22-2.58,6.32-5.32,9.71-7.61.78-.53,3,0,3.83.85a64.08,64.08,0,0,1,5.26,6.82l1.66-1.74,12.52,2.59,2.2,4.26,1.72-5.89c1.32,2.31,2.18,3.59,2.82,5,2.16,4.72,4.54,9.37,6.22,14.26.72,2.1-.1,4.72-.25,7.64,1.17,2.27,6.32,4,2.18,8.74-.28.32.91,1.94,1.65,3.41-7.87,4.27-8.93,12.37-8.15,20l-12,1.75,1.24,5.51L1117.16,79l-1.3-5.33-8.46.73c-.32.61-1,1.87-1.61,3.1l-6.55-3.45,5.88-1.91c-2-4.13-1.85-3.7-6-1.84-3.22,1.44-6.47,4.91-10.92.91-.89-.8-3.71-2-5.74-3.43l4.43-1.06c-2.12-4.16-2.17-9.88-7.59-11-3.76-.81-7.94.4-7.77,7C1068.1,57.86,1074,52,1068.49,49.86Zm56.15,15.46c1.38-2.44,1.38-2.44-4.93-7.76C1117.86,62.4,1123,62.38,1124.64,65.32Z"/></g><g id="change1_5"><path d="M150.43,37.27l4.21-3.94-1.34-.55c.95-2.42,1.91-4.84,2.85-7.26a88.9,88.9,0,0,0,3.52-9.4c.64-2.43,5.13-6.16,7.64-6.52a23,23,0,0,0,7.95-2.68c2.68-1.52,12.29-2.56,14.67-.65,1,.78,1.24,2.45,2.11,4.34,4.12-1,9.36,2.38,14.32-1.31.37-.27,3.45,2.19,4.44,3.88,1.56,2.66,2.41,5.74,3.5,8.47l-.55,5,1.44.26c.71-1.36,1.41-2.72,2.8-5.38-.14,2.65-.21,3.91-.33,6.2l4.49-4.93,1,.46c-.66,4.6-1.74,9.2-1.82,13.82,0,2.37,1.64,4.82,2.7,7.16.76,1.67,2.79,2.94-1.27,3.5-3.21.44-3.63,3.31-1.75,6.91l-4.67.27c.69,6.69-5.48,15.31-11.62,17.12a47.88,47.88,0,0,0-8.36,3.8c-4.62,2.43-7,1.6-7.43-3.6-.33-4.59-4.6-3.73-6.45-6.46l-2.63,3.08c-2.09-1.74-4.09-3.62-6.33-5.15a3.45,3.45,0,0,0-3.14-.23c-2.28,1.56-4.29,3.5-7.61,4.9A27.42,27.42,0,0,1,163.82,63c.72-1.79,2-3.35,3.78-6.11l-7.53,3L158.55,58l2.1-1.25c-1.49-.27-2.46-6.55-7-.27C152.71,49.31,159.71,41.94,150.43,37.27Zm59.33,8.59.48,1.63c6.69,1,6.85.95,8.33-4.27Z"/></g><g id="change1_6"><path d="M771.09,62.07l6.47-4.52L774,55.86l.18,1.59c-2.22.45-5.16,2-6.52,1.16-4.65-3-4.13-5.89,1.17-12.08-2.28-2.62-6.34-5.21-6.31-7.76,0-2.85,3.78-5.66,6-8.65-3.72-4.51-3.23-5.4,3-8.09a14.28,14.28,0,0,0,6.07-5.91c3.14-5.53,10.12-9.89,16.1-9.15,4.24.52,8.65.67,12.63,2,2.51.84,4.62,1.69,7.41,1.74,1.76,0,3.56,2.83,5.17,4.56,2.19,2.35,2.51,6.57,6.93,6.69.53,0,1.48.68,1.51,1.09.36,5.41,4.16,8.83,7.08,12.79,2,2.76-.46,8.38-4.37,9.44,2.79,5.19-2.26,6.69-4.54,9.61-.76,1-2.29,2.39-2,3,2.56,5.76-2.15,9.07-4.74,12.47-1.72,2.27-5.81,3-9,3.85-3,.87-6.24,2.57-9.33-.09-1.15-1-2.4-1.9-4-3.12v4.13c-3.13-.82-6.09-1.47-9-2.4-1.37-.45-3.44-1.2-3.7-2.19-1.19-4.67-3.58-3-7-.73.67-2.43,1.07-3.87,1.52-5.52Z"/></g><g id="change1_7"><path d="M1421.86,71.64a3.83,3.83,0,0,1-5.13,2.15c-1.06-.34-2.42.25-4,.45-.47-4-2.25-4.91-5.92-2.64-1.31.8-3.59.39-5.34.07-3.79-.69-7.52-1.69-11-2.49.23-1.92.49-4.14.89-7.64l-5.67,4.07c-5.67-1.07-2.8-6.13-3.22-8,2.15-2.85,3.65-4.82,5.87-7.75a16.76,16.76,0,0,0-2.66.24c-2.41,1.22-4.8,2.46-7.19,3.7-.54-2.8-1.63-5.63-1.45-8.38s.34-4.81-2.88-5.68c-.5-.14-.71-1.34-1.25-2.45l3.93-.77-1.19-.63c2.2-4.21,4.4-8.42,6.76-12.92l-3.09.45c.75-6.88,3.22-9.69,8.39-9.21-1.53-5.06,2.08-5.18,5.93-5.72-.33,1.14-.58,2-1,3.58l5.86,2.12.44-.82-2.9-3.27c2-.24,4.6.24,5.54-.8,3.29-3.66,4.69-.52,6.8,1.62,3.36-2.72,6.29-4.53,11.57-4.47,8,.09,1.89,8.88,8.55,7.86l.43,2.54,2.47-4.55c-.74,4,1.34,5.4,4.93,5.61a4.59,4.59,0,0,1,2.78.92,18.35,18.35,0,0,1,2.32,3.4c-1.17.31-2.32.71-3.5.91a6.29,6.29,0,0,1-1.84-.24l-.26,1.23,7,1.24c-1,2.12-1.89,4-2.65,5.7l6.63,5.05-4.49,2.53,3.3.7c-.34,2.66-.45,5-1,7.2s-.89,4.56-2.22,6.07c-3.25,3.69-1.76,11-9.52,11.62-1.76.14-3,5.36-4.68,8.16a32.73,32.73,0,0,1-2.81,3.61l-3.75-4.22c.39-3.32.77-6.64,1-9l-5-3.88c-.62,2.93-2.1,5.89-1.46,8.28C1416.77,69,1419.9,70.16,1421.86,71.64Zm-26.35-11.22c-4.45,4,.37,5.54,1.4,8.08l1.32-.17c-.19-4.17-.38-8.33-.61-13.33l-4.74,3.07Zm41-3.49c2.94-8.32,2.85-8.45-3.87-7.87C1433.74,51.4,1434.85,53.64,1436.46,56.93Z"/></g><g id="change1_8"><path d="M655.55,12.86l5.6-.82-2.69,5.34c3.67-1.67,5.3-.67,7.38,2.48,1.6,2.42,6,3,9.17,3.76,1.18,1.26,2.89,2.34,3.43,3.84,1.06,2.94,2.58,6.38,1.91,9.13-1.27,5.28,1.18,9,3.6,14.32l-8.42-1.82c0-.43.09-.87.13-1.31l-5,2.56c2.49,1.91,6.69,2.73,4.14,7.21-.17.29,1.12,1.4,1.38,1.71L668.24,62V58.31l-.84-.23c-.46,1.58-1.56,3.3-1.24,4.71.66,3-2.09,6.13.5,9.13.28.32-1.87,2.73-3,4.39-3.58-2.61-6.83-5-10.15-7.33-.56-.39-1.75-.66-2.16-.35a62.72,62.72,0,0,0-7.19,6c-2.46,2.53-7,2.11-8.23-1.13a38.55,38.55,0,0,1-1.22-4.79c-3.11,2.36-5,1.71-5.45-2.63-3.42,2.74-5.59.91-7.51-1.87-1.74-2.53-4-4.82-5.12-7.59a18,18,0,0,1-1-8.26c.44-4.22-1.61-4.33-4.69-3.5-2.49-5.19,4.12-5.84,4.54-9.49l-7.23-7.95,11.15-2.05L617,21.27c2.06-2.34,3.84-5.28,6.43-7,2.26-1.51,5.42-1.65,8.48-2.47L628.82,10c0-.45,0-.9-.05-1.35L641,6.11c.58,1.91,1,3.3,1.58,5.24,2.61-.82,5.35-1.16,7.49-2.47,4-2.46,4.55-2.42,5.19,2.09C655.29,11.59,655.43,12.21,655.55,12.86Z"/></g><g id="change1_9"><path d="M25.6,10.3l4-2.94-.41,1.4A39.24,39.24,0,0,0,32.94,10,13.2,13.2,0,0,0,44.37,7.25c.84-.64,3,.46,5,.85-.51,4.21-1,8.19-1.48,12.21,4.15,1.64,5,.27,4.62-8.3l5.66,3.87c5,8.12,6.54,16.16,3.94,24.8l2.36.18C65.28,37.92,66,35,66.93,32a9.14,9.14,0,0,1,1.47-2.17c.6.82,1.81,1.74,1.69,2.43a15.34,15.34,0,0,1-1.89,4.91c-2.18,3.82-2,8.8,1.28,11C67,49.38,64.59,50,62.81,51.47c-1.1.89-1.53,3-1.71,4.56a14.73,14.73,0,0,0,.36,4L54,64.89c-3.57-2.53-2.25,3.82-4.72,4.59-8.52-3.21-10.41-1.62-12,5.42-4.38,1.41-6.92-.42-8-5.37L26,73.44c-.85-5.58-4.39-4.82-8.08-3.71L17,68.47c1.3-1.34,2.53-2.77,3.92-4S24,62.27,25.34,61c.31-.32-.09-2.05-.62-2.36A7.35,7.35,0,0,0,14.66,62c-1.76,4.41-1.76,4.41-6,5.65.36-1.81.7-3.54.82-4.12-2-2.6-4.12-4.33-4.91-6.53s-.4-5-.49-7.1L10,46.22c-.38-7.6-8.33-2.43-9.95-5,.86-3.89,1.27-6.51,2-9,.69-2.27,1.77-4.43,2.17-6.92,2.62-1.66,5-3.2,2.78-7.39-1.16-2.21,1.92-5.13,4.6-4.66,6,1.05,5.92,1,7.68-4.75.18-.59,2-1.25,2.74-1C23.32,8.1,24.36,9.31,25.6,10.3ZM8.22,28.59l-1.69,0c.36,1.94.72,3.88,1.18,6.31l5.42-3.17Z"/></g><path d="M481.29,70.93l2,.12c1-2.59,2-5,2.91-7.17C480.34,65.43,478.9,67.39,481.29,70.93Z" fill="none"/><g id="change1_10"><path d="M525.73,44.59c1.25-3.24,3.28-6.19,4.39-9.46,1.94-5.73-1.65-9.41-7.66-8.21-.87.17-1.75.32-2.82.51,3.09-11-2.56-19.8-12.64-19.9l-.18,3.71-1.63,1.15c-.82-1.42-1.41-3.07-2.53-4.19s-2.77-2.39-4.27-2.5A73.71,73.71,0,0,0,486,5.85c-3.13.3-6.14,1.73-9.26,2-4.18.37-8.7-.31-8.21,6.16,0,.4-.8,1.05-1.35,1.29-7.42,3.15-10.32,9.36-10.92,16.79-.3,3.67-.34,7.64.74,11.08,1.19,3.8,3.79,7.15,5.91,10.93l-5.63,2.21,2.65,5.28,3.69-2.18c.76,10.08,9.74,15.6,17.67,11.64,1.84,4.34,14.51,7.72,18.64,4.7-5-4.61-.73-7.1,2.56-9.12,3.05-1.87,6.71-2.76,10.45-4.22.88,5.44,3.78,7,6.89,5.37,2.49-4.47,4.2-7.55,5.94-10.69-1.7-2.1-7.33,4.16-7.17-3,2.31-1.41,4.56-2.78,6.57-4C525.32,48.07,525.11,46.17,525.73,44.59ZM483.29,71.05l-2-.12c-2.39-3.54-1-5.5,4.91-7.05C485.31,66.06,484.34,68.46,483.29,71.05Z"/></g><g id="change1_11"><path d="M1878.84,76.27l2.29-2.09-1.14-.86c-.85,1.45-1.38,3.4-2.64,4.19s-3.07.15-5.29.15l-3.16,3.75-.72-.58,5.18-8-22.8-2.77c-.07-.25-.5-1.93-1.08-4.15l-6.42,3.79c-2.54-5.91-2.51-6.8,0-9.8l-10.63-12.41,5.28-3.25c-.54-1.38-1-2.7-1.65-4.22l5.71-3.54-5.39-.47c1.36-10.32-5.49-3.52-8.07-4,.41-3.87.77-7.34,1.13-10.8l2.22-.87,2.11,4,7.34-4-3.67-2.33c.52-.72.9-1.48,1-1.43,6.8,2,5.73-3.23,6.73-6.95.52-1.92,2.26-3.52,3.55-5.42,1.18,2.45,1.9,5,2.47,5,2.19-.12,3.38-1.26,2-3.92-.27-.53,2.13-2.45,3.8-4.28.15,1.64.24,2.73.4,4.49l4-1.95c4,5.22,6.81,1.38,9.78-1.62.33,1.32.66,2.62,1.23,4.91,1.48-1.9,2.32-3,2.8-3.59L1886,6.47c.3,2.21.64,4.71,1,7.37l5.79-1.89.3.68L1890,14.47c1.71.92,4.13,1.44,4.67,2.73.63,1.53-.29,3.75-.65,5.65a11.31,11.31,0,0,0-.38,4.4c2.86-4.31,5.82-6.73,10.74-3.45l-2,1.32c.91,1.08,1.6,2.55,2.75,3.18,2.92,1.61,6.21,9.56,4.07,11.69-3.15,3.13-2.74,6.3-1.78,9.92.22.84-.26,1.87-.51,3.4l-6.22-1.78c1.24,5.13,1.51,10.33-5.14,14.08.64-2.53,1.08-4.23,1.62-6.37l-2.84-1.6c-1.31,3.6-2.37,6.78-3.63,9.88-.8,2-2,3.72-2.85,5.66C1886.13,77.14,1883.12,77.43,1878.84,76.27Z"/></g><g id="change1_12"><path d="M1829.11,41l5-3.39c-.45,4-.77,6.8-1.09,9.64l-1.39-.15c.2-1.36.39-2.71.57-3.95-1.56-.92-3.41-1.44-4.24-2.66-.94-1.39-1-3.4-1.38-5.13C1829.74,34.84,1830,35.34,1829.11,41Z"/></g><path d="M1228.38,42.19c-.54,2.21-1,4-1.43,5.78,1.54,1.8,1.93,5.55,5.6,3.73,1.26-.62,3-2.87,2.69-3.58C1233.9,45,1231.93,42.19,1228.38,42.19Z" fill="none"/><path d="M1273.19,60.49c-.21.44-.41.89-.62,1.33l4.77,3.8c2.46-.43,3.83-.64,5.19-.92s2.64-.61,4-.93Q1279.82,62.15,1273.19,60.49Z" fill="none"/><path d="M1274.22,11.35l-7.47-.46c-.06.89-.11,1.77-.16,2.65a62.13,62.13,0,0,0,6.78.63C1273.65,14.17,1273.94,12.33,1274.22,11.35Z" fill="none"/><g id="change1_13"><path d="M1293.43,48.42l-7.54.79c1.31-2.67,2.42-4.85,3.46-7.07,1.27-2.7,1.42-4.88-3.78-4.82l5-5.65.91.77-.87,2.93,1.17.75,4.84-6c-2.58-1.09-5.13-1.36-5.68-2.55-1.07-2.32-1-5.15-1.43-7.76l1.18,0,1.29,1.77c0-8.2-7.13-7-11.65-9.87l5.33-1.29-8.68-4.1c-.1,1.08-.18,2.07-.36,4.06-4.45-3.74-8.2-7-12.13-10a3.28,3.28,0,0,0-3,.17,44.91,44.91,0,0,0-4.67,4.16c-4.77-6.33-10.6-3.27-16-3.56-.06,1.52-.12,2.72-.18,4.17-1.78-.88-3.12-2-4.54-2.14s-3.16.75-4.79,1.2c.88,4.13-3,4.87-5.53,5.61-3.14.94-9.21,6.63-9.54,10.76a76.19,76.19,0,0,1,8.64-1c.73,0,2.19,2.39,2.14,2.43-2.34,2.19-2.94,8-8.69,3.42l-.42,1.77,5.11,4.69c-2.53,6.11-10.35,11.59-2.36,19.11l6.24-3-.8,6.54,2.46,1.65c-5.92,2.11-6.34,3.56-2.26,7.11,2.11-1.94,4.72-5,6.47,0,1,2.76.62,6,1,10.47a39.35,39.35,0,0,1,3.14-4.83,32.39,32.39,0,0,1,3.82-3.14c.68,1.45,1.37,2.9,1.95,4.12l3.84.62-1.55,7.38c.52.27,1,.54,1.55.82l6.77-4.47c4,4.35,7.45-.3,11.57-1.25v9.39c4-5.26,9.06-8.42,15.58-9a5.33,5.33,0,0,0,2.75-1.82c-1.9-4.12,2.72-5.16,3.6-7.88,2.41-1.91,2.39-1.94.19-5l7.36-9Zm-60.88,3.28c-3.67,1.82-4.06-1.93-5.6-3.73.44-1.79.89-3.57,1.43-5.78,3.55,0,5.52,2.85,6.86,5.93C1235.55,48.83,1233.81,51.08,1232.55,51.7Zm34-38.16c.05-.88.1-1.76.16-2.65l7.47.46c-.28,1-.57,2.82-.85,2.82A62.13,62.13,0,0,1,1266.59,13.54Zm15.94,51.16c-1.36.28-2.73.49-5.19.92l-4.77-3.8c.21-.44.41-.89.62-1.33q6.63,1.65,13.29,3.28C1285.17,64.09,1283.86,64.42,1282.53,64.7Z"/></g><g id="change1_14"><path d="M1291,42.15l6.32,4.58c.32-4.54.53-7.55.78-11Z"/></g><path d="M1739.72,60.12l-7.16-1.55C1736.91,64.23,1736.91,64.23,1739.72,60.12Z" fill="none"/><g id="change1_15"><path d="M1749.61,37.75c2.8-2.43,4.47-4.17-.54-6.56-2.81-1.33-7.7-3.43-5-8.36-3.79-1.49-7-3.22-10.49-4-3.2-.72-4.93-1.5-5.59-5.28-1-5.36-6.12-7.88-9.27-5.14-3.79,3.29-7.26,2.32-10.6-.29-4.71-3.68-9.56-3.06-12.83,1.9a13.55,13.55,0,0,1-2.21,3c-3.85,3.28-7.9,6.35-11.64,9.75-.6.55.15,2.41,0,3.61a34.7,34.7,0,0,1-1.41,6.67c-.52,1.45-1.77,2.65-3.06,4.47l3.73-.17c1.13,2.36,2.17,4.53,2.75,5.72-1.48,3.86-2.72,7.13-4.34,11.36,12.07-5,4.24,5.93,8.57,7.4l4.77-1.69c.48,5.6,4.58,6,8.64,6.21,2.57.12,5.16-.24,8.6-.43-3.07,3.9-8.12,4.28-13.23,1.86.66,3.08,1.21,5.54,5.29,4.21a4.77,4.77,0,0,1,4.08.92c3.25,3.4,7.41,2.57,11.3,3,5.92.59,9.24-1.82,10.63-7.54,5.28,1.08,2.71,5.07,2.75,8.32l5.78-1c-4.18-5-.26-6.14,2.66-7.4.4-1.76.74-3.22,1.08-4.68a24.38,24.38,0,0,0,3.14,2.08,18.14,18.14,0,0,0,3.13,1c.15-3.16.31-6.26.49-10l2.59,1.29c1.14-3.71,2.11-7.49,3.45-11.13C1754.88,41.16,1754.31,39.22,1749.61,37.75Zm-17,20.82,7.16,1.55C1736.91,64.23,1736.91,64.23,1732.56,58.57Z"/></g></g></g></svg>